<?xml version="1.0" encoding="utf-8"?>
<!-- Generator: Adobe Illustrator 19.2.1, SVG Export Plug-In . SVG Version: 6.00 Build 0)  -->
<svg version="1.1" id="Layer_1" xmlns="http://www.w3.org/2000/svg" xmlns:xlink="http://www.w3.org/1999/xlink" x="0px" y="0px"
	 viewBox="0 0 1000 1000" style="enable-background:new 0 0 1000 1000;" xml:space="preserve">
<g transform="matrix(1 0 0 -1 0 800)">
	<path d="M436-91.5h127.1V87.9c0,7.5-3.4,11.2-10.3,11.2H446.3c-6.9,0-10.3-3.7-10.3-11.2V-91.5z M774.2-81.2v406.4L499.5,585
		L224.8,325.2V-81.2c0-6.9,3.4-10.3,10.3-10.3H394V87.9c0.6,14.9,5.8,27.4,15.4,37.4c9.7,10,22,15.3,36.9,15.9h106.5
		c14.9-0.6,27.3-5.9,36.9-15.9c9.7-10,14.8-22.4,15.4-37.4V-91.5h159.8C771.1-91.5,774.2-88.1,774.2-81.2z M863.9,314l14.9,14
		c1.2,1.2,1.9,3,1.9,5.1s-0.6,3.9-1.9,5.1L507,688.7c-1.9,1.9-4.4,2.8-7.5,2.8c-3.1,0-5.6-0.9-7.5-2.8L121.1,338.3
		c-1.2-1.2-1.9-3-1.9-5.1s0.6-3.9,1.9-5.1l14.9-14c5-4.4,10-4.4,14.9,0l333.6,315.8c10,8.7,19.9,8.7,29.9,0L849,314
		C854,309.7,858.9,309.7,863.9,314z M536,719.5l371.9-351.3c10.6-9.3,15.9-21.3,15.9-36s-5.3-26.6-15.9-36l-14.9-14
		c-10-9.3-22-14-36-14c-14,0-26.3,4.7-36.9,14l-2.8,1.9V-81.2c-0.6-14.9-5.8-27.3-15.4-36.9c-9.7-9.7-22-14.8-36.9-15.4H235.1
		c-14.9,0.6-27.3,5.8-36.9,15.4s-14.8,22-15.4,36.9v365.3l-2.8-1.9c-10-9.3-22-14-36-14c-14,0-26.3,4.7-36.9,14l-14.9,14
		c-10.6,9.3-15.9,21.3-15.9,36s5.3,26.6,15.9,36l370.9,351.3c10.6,9.3,22.9,14,36.9,14S526,728.9,536,719.5z"/>
</g>
</svg>
