<?xml version="1.0" encoding="utf-8"?>
<!-- Generator: Adobe Illustrator 19.2.1, SVG Export Plug-In . SVG Version: 6.00 Build 0)  -->
<svg version="1.1" id="Layer_1" xmlns="http://www.w3.org/2000/svg" xmlns:xlink="http://www.w3.org/1999/xlink" x="0px" y="0px"
	 viewBox="0 0 1000 1000" style="enable-background:new 0 0 1000 1000;" xml:space="preserve">
<g transform="matrix(1 0 0 -1 0 800)">
	<path d="M475.5,323.5c6,0,11.2-2.3,15.5-7s6.5-10,6.5-16v-91c0-6-2.2-11.2-6.5-15.5s-9.7-6.5-16-6.5s-11.7,2.2-16,6.5
		s-6.5,9.5-6.5,15.5v91c0,6,2.2,11.3,6.5,16S468.8,323.5,475.5,323.5z M860.5,242.5v115c0,7.3-3.7,11-11,11h-160
		c-7.3,0-11-3.7-11-11v-115c0-7.3,3.7-11,11-11h160C856.8,231.5,860.5,235.2,860.5,242.5z M723.5,436.5v-23h91v23
		c-0.7,12.7-5.2,23.3-13.5,32s-18.8,13-31.5,13s-23.3-4.3-32-13S724.2,449.2,723.5,436.5z M860.5,436.5v-24c14-2.7,25-9,33-19
		s12-22,12-36v-115c-0.7-16-6.2-29.2-16.5-39.5c-10.3-10.3-23.5-15.8-39.5-16.5h-160c-16,0.7-29.2,6.2-39.5,16.5
		c-10.3,10.3-15.8,23.5-16.5,39.5v115c0,14,4,26,12,36s19,16.3,33,19v24c0.7,25.3,9.5,46.5,26.5,63.5s38.5,25.5,64.5,25.5
		S817,517,834,500S859.8,461.8,860.5,436.5z M542.5-118.5v677c0,5.3-2.3,9-7,11l-386,161h-3c-7.3,0-11-3.7-11-11v-684
		c0-5.3,2.3-9,7-11l385-154c2.7-1.3,5.8-1.2,9.5,0.5C540.7-127.3,542.5-123.8,542.5-118.5z M769.5,141.5c6,0,11.2-2.3,15.5-7
		s6.5-10,6.5-16v-79c-0.7-16-6.2-29.3-16.5-40s-23.5-16.3-39.5-17h-147v-101c-0.7-20-7.2-34.5-19.5-43.5s-24.8-13.5-37.5-13.5
		c-8,0-15,1.3-21,4l-385,154c-23.3,10-35,27.7-35,53v684c0.7,16,6.2,29.2,16.5,39.5s23.5,15.8,39.5,16.5h589
		c16-0.7,29.2-6.2,39.5-16.5s15.8-23.5,16.5-39.5v-125c0-6-2.2-11.2-6.5-15.5s-9.7-6.5-16-6.5s-11.7,2.2-16,6.5s-6.5,9.5-6.5,15.5
		v125c0,7.3-3.7,11-11,11h-468l286-119c23.3-10,35-27.7,35-53v-531h147c7.3,0,11,4,11,12v79c0,6,2.2,11.3,6.5,16
		S762.8,141.5,769.5,141.5z"/>
</g>
</svg>
