<?xml version="1.0" encoding="utf-8"?>
<!-- Generator: Adobe Illustrator 19.2.1, SVG Export Plug-In . SVG Version: 6.00 Build 0)  -->
<svg version="1.1" id="Layer_1" xmlns="http://www.w3.org/2000/svg" xmlns:xlink="http://www.w3.org/1999/xlink" x="0px" y="0px"
	 viewBox="0 0 1020 1000" style="enable-background:new 0 0 1020 1000;" xml:space="preserve">
<g transform="matrix(1 0 0 -1 0 800)">
	<path d="M815.2-18.1V53h-40.5v-71.1c0-6.6,3.6-9.9,10.8-9.9h19.8C811.9-28,815.2-24.7,815.2-18.1z M244.4-18.1V53H203v-71.1
		c0-6.6,3.9-9.9,11.7-9.9h20.7C241.4-28,244.4-24.7,244.4-18.1z M914.2,257.4c18.6,4.8,33.8,14.6,45.5,29.3
		c11.7,14.7,17.9,32,18.5,51.8c-0.6,25.2-9.3,45.5-26.1,60.8c-16.8,15.3-37.8,22.4-63,21.2c-21.6-2.4-39.2-11.6-52.7-27.5
		s-20.6-35.6-21.2-59V195.3c0-5.4-2-10.1-5.9-14c-3.9-3.9-8.6-5.9-14-5.9H223.7c-5.4,0-10.2,2-14.4,5.9c-4.2,3.9-6.3,8.6-6.3,14
		v139.5c-0.6,23.4-7.7,43.1-21.2,59s-31.1,25.1-52.7,27.5c-24.6,1.2-45.3-5.7-62.1-20.7S41.6,365.1,41,339.3
		c0.6-20.4,6.6-38,18-52.7c11.4-14.7,26.4-24.2,45-28.4c11.4-3.6,20.7-9.8,27.9-18.5c7.2-8.7,10.8-18.8,10.8-30.2V104.3
		c0-2.4,1.2-4.8,3.6-7.2s4.8-3.6,7.2-3.6h711.2c7.2,0.6,11.1,4.2,11.7,10.8v104.4c0,12.6,3.5,23.3,10.4,32
		C893.7,249.4,902.8,255,914.2,257.4z M203,523v-92.7c27.6-25.8,41.4-57.6,41.4-95.4V216.9h530.3v117.9c0,38.4,13.5,70.2,40.5,95.4
		V523c-0.6,16.8-6.6,30.9-18,42.3s-25.8,17.4-43.2,18H266c-18-0.6-32.9-6.6-44.6-18S203.6,539.8,203,523z M979,430.2
		c27-25.2,40.5-55.5,40.5-90.9c-0.6-29.4-9.6-55.2-27-77.4c-17.4-22.2-40.5-36.9-69.3-44.1c-3.6-1.2-5.4-4.2-5.4-9V104.3
		c-0.6-14.4-5.9-26.4-15.8-36S879.7,53.6,864.7,53h-8.1v-71.1c-0.6-14.4-5.7-26.4-15.3-36s-21.6-14.7-36-15.3h-19.8
		c-15,0.6-27.2,5.7-36.5,15.3c-9.3,9.6-14.3,21.6-14.9,36V53H284.9v-71.1c-0.6-15-5.4-27.2-14.4-36.5s-20.7-14.3-35.1-14.9h-20.7
		c-14.4,0.6-26.6,5.7-36.5,15.3s-15.2,21.6-15.8,36V53h-9c-14.4,0.6-26.6,5.7-36.5,15.3s-15.2,21.6-15.8,36v104.4
		c0,4.8-2.4,7.8-7.2,9c-28.2,6.6-50.9,20.9-68,42.8C9,282.4,0.2,308.7-0.5,339.3c1.2,38.4,14.4,69,39.6,91.8
		c25.2,22.8,56.4,33,93.6,30.6c13.8-2.4,23.7-4.8,29.7-7.2V523c0.6,28.8,10.7,52.8,30.2,72s44,29.1,73.4,29.7H754
		c28.8-0.6,53-10.5,72.5-29.7c19.5-19.2,29.6-43.2,30.2-72v-68.4c6,2.4,15.6,4.8,28.8,7.2C922,464.7,953.2,454.2,979,430.2z"/>
</g>
</svg>
